Coordinates
version=1
nRows=23
nColumns=30
inDegrees=yes

Units are S.I. units (second, meters, Newtons, ...)
Angles are in degrees.

endheader
time	floatyaw	floatroll	floatpitch	floatx	floaty	floatz	pro_sup_l	deviation_l	flexion_l	cmc_flexion_l	cmc_abduction_l	mp_flexion_l	ip_flexion_l	2mcp_flexion_l	2mcp_abduction_l	2pm_flexion_l	2md_flexion_l	3mcp_flexion_l	3mcp_abduction_l	3pm_flexion_l	3md_flexion_l	4mcp_flexion_l	4mcp_abduction_l	4pm_flexion_l	4md_flexion_l	5mcp_flexion_l	5mcp_abduction_l	5pm_flexion_l	5md_flexion_l
-1.495000	-160.147433	-5.066637	-73.570646	0.082968	-0.182405	-0.015977	101.357419	5.434104	-0.961441	14.446078	9.115638	-25.507858	-41.328823	29.093598	6.599088	43.651486	29.930173	25.501707	4.126005	44.043414	29.223876	14.446035	-4.161123	51.681232	36.010459	1.657963	-8.226314	62.109529	43.363355
-1.485000	-160.147433	-5.066637	-73.570646	0.082973	-0.182397	-0.015976	101.370979	5.439263	-0.955293	14.409208	9.141766	-25.503562	-41.319252	29.101091	6.601795	43.652704	29.931356	25.498944	4.127788	44.047462	29.224360	14.447030	-4.161288	51.677223	36.005669	1.660878	-8.226997	62.106256	43.356208
-1.475000	-160.147433	-5.066637	-73.570646	0.082978	-0.182391	-0.015980	101.385045	5.441776	-0.953222	14.374189	9.165988	-25.508951	-41.326990	29.109548	6.606139	43.657380	29.930383	25.499569	4.129324	44.052280	29.223247	14.452611	-4.162133	51.671885	36.000102	1.665069	-8.227956	62.100366	43.348118
-1.465000	-160.147433	-5.066637	-73.570646	0.082980	-0.182389	-0.015989	101.397166	5.440821	-0.956100	14.343794	9.193204	-25.526586	-41.353082	29.118348	6.612657	43.668526	29.929594	25.502583	4.130199	44.061284	29.223231	14.461123	-4.163665	51.670162	35.996202	1.669994	-8.229435	62.095725	43.341470
-1.455000	-160.147433	-5.066637	-73.570646	0.082978	-0.182392	-0.016002	101.406192	5.437254	-0.962703	14.319065	9.225015	-25.554664	-41.392920	29.127038	6.621025	43.686886	29.930567	25.506302	4.130327	44.075877	29.225735	14.469946	-4.165741	51.676106	35.995614	1.674999	-8.231473	62.096121	43.338114
-1.445000	-160.147433	-5.066637	-73.570646	0.082973	-0.182395	-0.016013	101.412657	5.433309	-0.970203	14.299233	9.259000	-25.587558	-41.437838	29.135653	6.630119	43.709911	29.933208	25.508889	4.130083	44.094746	29.230445	14.476273	-4.168227	51.691572	35.998851	1.679290	-8.233886	62.103929	43.339019
-1.435000	-160.147433	-5.066637	-73.570646	0.082965	-0.182396	-0.016020	101.417885	5.431365	-0.975550	14.282177	9.291186	-25.617996	-41.478342	29.144938	6.638474	43.732582	29.935933	25.508987	4.130199	44.114632	29.235871	14.478109	-4.171076	51.715575	36.005429	1.682105	-8.236445	62.118921	43.344118
-1.425000	-160.147433	-5.066637	-73.570646	0.082956	-0.182395	-0.016022	101.422667	5.432595	-0.976852	14.265280	9.319456	-25.639845	-41.507381	29.156065	6.644878	43.749601	29.936772	25.506003	4.131408	44.132098	29.240545	14.474871	-4.174265	51.744554	36.014246	1.682860	-8.238997	62.137922	43.352299
-1.415000	-160.147433	-5.066637	-73.570646	0.082949	-0.182390	-0.016020	101.426628	5.436393	-0.973997	14.246317	9.345136	-25.650097	-41.522145	29.169996	6.648824	43.757670	29.934570	25.500070	4.134044	44.145297	29.244021	14.467364	-4.177652	51.773549	36.023956	1.681292	-8.241382	62.155836	43.361651
-1.405000	-160.147433	-5.066637	-73.570646	0.082945	-0.182385	-0.016015	101.428796	5.440950	-0.968379	14.223949	9.371706	-25.649196	-41.523802	29.187078	6.650589	43.756654	29.929465	25.491852	4.137853	44.154725	29.247011	14.457343	-4.180903	51.797876	36.033212	1.677710	-8.243256	62.167809	43.369967
-1.395000	-160.147433	-5.066637	-73.570646	0.082942	-0.182380	-0.016010	101.428792	5.444507	-0.962029	14.197730	9.401946	-25.639877	-41.515756	29.207052	6.650978	43.749277	29.922533	25.482279	4.142189	44.162629	29.250647	14.446908	-4.183544	51.814624	36.040823	1.673249	-8.244089	62.171401	43.375386
-1.385000	-160.147433	-5.066637	-73.570646	0.082940	-0.182376	-0.016009	101.427482	5.446374	-0.956588	14.167859	9.435881	-25.625546	-41.501566	29.229184	6.650913	43.739809	29.915102	25.472081	4.146446	44.171502	29.255469	14.437814	-4.185146	51.823357	36.045939	1.669679	-8.243456	62.167602	43.376989
-1.375000	-160.147433	-5.066637	-73.570646	0.082940	-0.182374	-0.016011	101.426310	5.446966	-0.952519	14.134967	9.471020	-25.609213	-41.483599	29.252120	6.651044	43.732488	29.908330	25.461265	4.150428	44.182454	29.260845	14.430734	-4.185513	51.825834	36.048279	1.668442	-8.241434	62.160214	43.375188
-1.365000	-160.147433	-5.066637	-73.570646	0.082940	-0.182372	-0.016014	101.425757	5.446957	-0.948823	14.099915	9.504343	-25.593317	-41.462861	29.273668	6.651500	43.730172	29.903103	25.448974	4.154375	44.194250	29.265129	14.424800	-4.184826	51.825060	36.048328	1.669300	-8.238731	62.154144	43.371804
-1.355000	-160.147433	-5.066637	-73.570646	0.082943	-0.182370	-0.016017	101.424298	5.446344	-0.943471	14.063529	9.534261	-25.579912	-41.439809	29.291084	6.651874	43.733467	29.899953	25.434090	4.158640	44.203614	29.266440	14.417847	-4.183662	51.824231	36.047356	1.669636	-8.236343	62.153518	43.369608
-1.345000	-160.147433	-5.066637	-73.570646	0.082948	-0.182366	-0.016019	101.418963	5.444296	-0.934452	14.026336	9.561016	-25.570543	-41.415277	29.302135	6.651464	43.740700	29.898868	25.416278	4.163251	44.206907	29.263739	14.407493	-4.182862	51.825995	36.047138	1.665374	-8.234990	62.160301	43.371218
-1.335000	-160.147433	-5.066637	-73.570646	0.082958	-0.182360	-0.016020	101.407408	5.439983	-0.920997	13.988548	9.585370	-25.565756	-41.390672	29.306289	6.649720	43.748942	29.899266	25.396654	4.167743	44.202390	29.257686	14.392500	-4.183208	51.832079	36.049359	1.653322	-8.234782	62.173704	43.377671
-1.325000	-160.147433	-5.066637	-73.570646	0.082969	-0.182354	-0.016020	101.390085	5.433694	-0.904243	13.950421	9.606584	-25.564762	-41.367267	29.305021	6.646697	43.755585	29.900327	25.377476	4.171366	44.191557	29.250704	14.373552	-4.185040	51.843063	36.054851	1.633393	-8.235309	62.190557	43.387578
-1.315000	-160.147433	-5.066637	-73.570646	0.082980	-0.182347	-0.016021	101.370854	5.427255	-0.886832	13.912789	9.621351	-25.565746	-41.345383	29.300935	6.643226	43.759326	29.901396	25.361088	4.173547	44.178513	29.245994	14.352917	-4.187978	51.858224	36.063045	1.609023	-8.235903	62.206663	43.397668
-1.305000	-160.147433	-5.066637	-73.570646	0.082990	-0.182342	-0.016023	101.355311	5.423246	-0.871685	13.877353	9.625000	-25.566745	-41.324469	29.296573	6.640672	43.759896	29.902001	25.348935	4.174251	44.167785	29.245963	14.333284	-4.191024	51.875616	36.072058	1.585415	-8.235836	62.218641	43.404611
-1.295000	-160.147433	-5.066637	-73.570646	0.082997	-0.182337	-0.016027	101.347768	5.423472	-0.860784	13.846385	9.614878	-25.566583	-41.304278	29.294015	6.640365	43.757109	29.901513	25.341318	4.174004	44.162102	29.250989	14.316682	-4.193064	51.892584	36.079492	1.566956	-8.234502	62.225268	43.406918
-1.285000	-160.147433	-5.066637	-73.570646	0.083002	-0.182335	-0.016034	101.348911	5.427772	-0.854744	13.821861	9.593892	-25.565368	-41.286182	29.295345	6.643023	43.750490	29.898936	25.337929	4.173601	44.161471	29.259230	14.304206	-4.193563	51.906695	36.083552	1.555635	-8.231698	62.227611	43.405615
-1.275000	-160.147433	-5.066637	-73.570646	0.083003	-0.182335	-0.016042	101.355759	5.433979	-0.853159	13.804463	9.571363	-25.564304	-41.273238	29.302993	6.648574	43.739839	29.893177	25.338530	4.173703	44.163811	29.267474	14.296437	-4.193024	51.916801	36.083891	1.551191	-8.227897	62.228037	43.403297
